<svg viewBox="0 0 280 280" xmlns="http://www.w3.org/2000/svg" fill="none" stroke="#3f3f3f" stroke-linecap="round" stroke-linejoin="round">
  <!-- Hauptsitz: EIN grosses Restaurant, Kohle-Skizzen-Stil (Doppelstriche, leicht wacklig) -->
  <!-- Gebäudekörper -->
  <path d="M38 122 L241 118 L243 226 L41 229 Z" stroke-width="3.4"/>
  <path d="M41 125 L238 121" stroke-width="1.4" opacity="0.55"/>
  <path d="M44 226 L239 223" stroke-width="1.4" opacity="0.5"/>
  <!-- Dach / Attika -->
  <path d="M30 121 L250 116 L249 100 L31 106 Z" stroke-width="3.2"/>
  <path d="M34 109 L246 104" stroke-width="1.3" opacity="0.5"/>
  <!-- Grosser McD-Bogen auf dem Dach -->
  <path d="M118 98 C120 62 136 48 141 48 C146 48 161 62 163 97" stroke-width="4.2"/>
  <path d="M124 98 C126 68 137 55 141 55 C145 55 155 68 157 97" stroke-width="1.6" opacity="0.6"/>
  <path d="M141 48 L141 55" stroke-width="1.4" opacity="0.5"/>
  <!-- Eingangsfront: grosse Glastüre mittig -->
  <path d="M118 229 L118 158 L162 157 L163 228" stroke-width="3"/>
  <path d="M140 158 L140 227" stroke-width="1.8" opacity="0.75"/>
  <path d="M123 163 L136 163 M145 163 L157 162" stroke-width="1.3" opacity="0.5"/>
  <!-- Fensterbänder links/rechts -->
  <path d="M52 150 L104 149 L105 196 L53 197 Z" stroke-width="2.6"/>
  <path d="M78 149 L79 196" stroke-width="1.3" opacity="0.55"/>
  <path d="M53 173 L104 172" stroke-width="1.3" opacity="0.55"/>
  <path d="M176 149 L228 148 L229 195 L177 196 Z" stroke-width="2.6"/>
  <path d="M202 148 L203 195" stroke-width="1.3" opacity="0.55"/>
  <path d="M177 172 L228 171" stroke-width="1.3" opacity="0.55"/>
  <!-- Schild «HQ»-Fahne am Gebäude -->
  <path d="M244 130 L268 128 L267 152 L245 154 Z" stroke-width="2.4"/>
  <path d="M250 141 C250 136 254 134 256 134 C258 134 262 136 262 141" stroke-width="2"/>
  <!-- Vorplatz-Striche -->
  <path d="M30 238 L110 236 M128 236 L180 235 M196 235 L252 233" stroke-width="1.6" opacity="0.6"/>
  <path d="M60 248 L140 246 M158 246 L226 244" stroke-width="1.2" opacity="0.4"/>
</svg>
